<?xml version="1.0" encoding="utf-8"?>
<!-- Generator: Adobe Illustrator 26.0.1, SVG Export Plug-In . SVG Version: 6.00 Build 0)  -->
<svg version="1.1" id="Layer_1" xmlns="http://www.w3.org/2000/svg" xmlns:xlink="http://www.w3.org/1999/xlink" x="0px" y="0px"
	 viewBox="0 0 283.46 56.69" style="enable-background:new 0 0 283.46 56.69;" xml:space="preserve">
<style type="text/css">
	.st0{enable-background:new    ;}
	.st1{fill:#545353;}
</style>
<g class="st0">
	<path class="st1" d="M24.85,12.24c-0.37-0.16-0.78-0.32-1.24-0.47s-0.94-0.28-1.45-0.39c-0.51-0.11-1.03-0.2-1.57-0.28
		C20.05,11.03,19.52,11,18.99,11c-1.72,0-3.23,0.29-4.54,0.88c-1.31,0.58-2.41,1.43-3.29,2.52s-1.56,2.44-2.01,4.02
		C8.7,20,8.47,21.79,8.47,23.79c0,2.29,0.23,4.25,0.69,5.91c0.46,1.66,1.1,3.02,1.92,4.1c0.82,1.08,1.81,1.87,2.96,2.39
		c1.15,0.52,2.42,0.78,3.82,0.78c0.78,0,1.48-0.04,2.09-0.11c0.61-0.07,1.19-0.17,1.73-0.3c0.28-0.06,0.56-0.15,0.84-0.25
		c0.28-0.1,0.57-0.2,0.86-0.3c0.29-0.09,0.58-0.18,0.88-0.24c0.3-0.07,0.6-0.1,0.92-0.1c0.36,0,0.69,0.05,1.01,0.16
		c0.31,0.11,0.58,0.26,0.81,0.47c0.23,0.2,0.41,0.46,0.53,0.76s0.19,0.65,0.19,1.04c0,0.59-0.14,1.12-0.42,1.59
		c-0.28,0.48-0.71,0.92-1.3,1.33c-0.58,0.41-1.24,0.75-1.97,1.03c-0.54,0.21-1.1,0.38-1.67,0.51s-1.15,0.24-1.72,0.32
		s-1.14,0.14-1.71,0.18c-0.56,0.04-1.1,0.05-1.61,0.05c-0.9,0-1.73-0.04-2.48-0.12c-0.76-0.08-1.47-0.2-2.15-0.35
		c-2.12-0.49-3.95-1.28-5.47-2.37s-2.78-2.45-3.76-4.06c-0.98-1.61-1.7-3.46-2.17-5.55c-0.47-2.08-0.7-4.36-0.7-6.82
		c0-2.19,0.22-4.17,0.67-5.94c0.45-1.78,1.07-3.36,1.87-4.76c0.8-1.39,1.76-2.6,2.87-3.61C7.1,8.52,8.33,7.68,9.68,7.02
		c1.35-0.67,2.78-1.16,4.31-1.48s3.11-0.48,4.74-0.48c0.9,0,1.75,0.03,2.54,0.1s1.54,0.16,2.25,0.29c0.71,0.13,1.37,0.28,2,0.46
		c0.63,0.18,1.24,0.38,1.82,0.61L24.85,12.24z"/>
	<path class="st1" d="M39.26,2.42v14.2c0.31-0.31,0.7-0.63,1.19-0.99c0.49-0.35,1.07-0.67,1.73-0.96c0.66-0.29,1.41-0.54,2.23-0.73
		s1.74-0.29,2.73-0.29c1.46,0,2.77,0.22,3.93,0.65c1.17,0.44,2.16,1.09,2.98,1.97c0.82,0.88,1.45,1.98,1.88,3.32
		c0.44,1.34,0.65,2.9,0.65,4.69v15.06c0,0.5-0.07,0.93-0.2,1.29c-0.13,0.37-0.3,0.69-0.51,0.96c-0.21,0.27-0.44,0.49-0.7,0.67
		c-0.26,0.18-0.53,0.32-0.8,0.42c-0.27,0.1-0.53,0.17-0.78,0.22c-0.25,0.04-0.46,0.06-0.64,0.06c-0.19,0-0.41-0.02-0.66-0.06
		c-0.25-0.04-0.51-0.11-0.78-0.22c-0.27-0.1-0.53-0.24-0.79-0.42c-0.26-0.17-0.49-0.4-0.69-0.67c-0.21-0.27-0.37-0.59-0.5-0.96
		c-0.13-0.37-0.19-0.8-0.19-1.29V24.76c0-0.93-0.11-1.72-0.34-2.38c-0.22-0.66-0.53-1.19-0.92-1.61c-0.39-0.42-0.85-0.72-1.38-0.91
		c-0.53-0.19-1.11-0.28-1.73-0.28c-0.74,0-1.42,0.12-2.06,0.36s-1.2,0.55-1.69,0.92c-0.5,0.37-0.91,0.78-1.25,1.22
		c-0.34,0.45-0.58,0.87-0.72,1.28v15.98c0,0.5-0.07,0.93-0.2,1.29c-0.13,0.37-0.3,0.69-0.51,0.96c-0.21,0.27-0.44,0.49-0.7,0.67
		c-0.26,0.18-0.53,0.32-0.8,0.42c-0.27,0.1-0.53,0.17-0.78,0.22c-0.25,0.04-0.46,0.06-0.64,0.06c-0.19,0-0.41-0.02-0.66-0.06
		c-0.25-0.04-0.51-0.11-0.78-0.22s-0.53-0.24-0.79-0.42c-0.26-0.17-0.49-0.4-0.69-0.67c-0.21-0.27-0.37-0.59-0.5-0.96
		c-0.13-0.37-0.19-0.8-0.19-1.29V2.42H39.26z"/>
	<path class="st1" d="M75.69,13.64c1.28,0,2.51,0.14,3.69,0.41c1.18,0.27,2.29,0.69,3.33,1.23c1.03,0.55,1.97,1.23,2.82,2.06
		s1.57,1.78,2.18,2.87c0.61,1.09,1.08,2.31,1.41,3.68c0.33,1.36,0.5,2.86,0.5,4.49c0,1.62-0.17,3.11-0.5,4.47
		c-0.33,1.36-0.8,2.58-1.41,3.67c-0.61,1.09-1.33,2.05-2.18,2.87c-0.85,0.83-1.79,1.52-2.82,2.06c-1.03,0.55-2.14,0.96-3.33,1.24
		c-1.18,0.28-2.41,0.42-3.69,0.42s-2.51-0.14-3.7-0.42c-1.19-0.28-2.3-0.69-3.33-1.24s-1.98-1.24-2.83-2.06
		c-0.85-0.83-1.59-1.79-2.19-2.87s-1.08-2.31-1.42-3.67s-0.51-2.85-0.51-4.47c0-1.63,0.17-3.12,0.51-4.49
		c0.34-1.36,0.81-2.59,1.42-3.68c0.61-1.09,1.34-2.04,2.19-2.87c0.85-0.82,1.8-1.51,2.83-2.06s2.15-0.96,3.33-1.23
		S74.42,13.64,75.69,13.64z M75.69,19.26c-0.92,0-1.77,0.17-2.57,0.52c-0.8,0.35-1.49,0.89-2.07,1.63
		c-0.58,0.74-1.05,1.68-1.38,2.82s-0.51,2.51-0.51,4.1c0,1.58,0.17,2.94,0.51,4.08c0.34,1.14,0.8,2.08,1.38,2.82
		c0.58,0.74,1.27,1.29,2.07,1.64c0.8,0.35,1.65,0.53,2.57,0.53c0.93,0,1.79-0.18,2.6-0.53s1.5-0.9,2.09-1.64
		c0.59-0.74,1.05-1.68,1.39-2.82c0.34-1.14,0.51-2.5,0.51-4.08c0-1.59-0.17-2.96-0.51-4.1s-0.8-2.08-1.39-2.82
		c-0.59-0.74-1.29-1.28-2.09-1.63C77.49,19.43,76.62,19.26,75.69,19.26z"/>
	<path class="st1" d="M98.36,2.47c0.55,0,1.07,0.09,1.56,0.27c0.5,0.18,0.92,0.44,1.29,0.77c0.36,0.33,0.65,0.73,0.87,1.19
		c0.22,0.46,0.32,0.98,0.32,1.55c0,0.57-0.11,1.08-0.32,1.54c-0.22,0.46-0.51,0.85-0.87,1.17c-0.36,0.32-0.79,0.57-1.29,0.75
		c-0.49,0.18-1.02,0.26-1.56,0.26c-0.56,0-1.08-0.09-1.57-0.26s-0.92-0.42-1.28-0.75c-0.36-0.32-0.65-0.71-0.87-1.17
		c-0.22-0.46-0.32-0.97-0.32-1.54c0-0.57,0.11-1.08,0.32-1.55c0.22-0.46,0.51-0.86,0.87-1.19c0.36-0.33,0.79-0.59,1.28-0.77
		C97.28,2.56,97.81,2.47,98.36,2.47z M101.98,14.35v24.99c0,0.5-0.07,0.93-0.2,1.29c-0.13,0.37-0.3,0.69-0.51,0.96
		c-0.21,0.27-0.44,0.49-0.7,0.67c-0.26,0.18-0.53,0.32-0.8,0.42c-0.27,0.1-0.53,0.17-0.78,0.22c-0.25,0.04-0.46,0.06-0.64,0.06
		c-0.19,0-0.41-0.02-0.66-0.06c-0.25-0.04-0.51-0.11-0.78-0.22s-0.53-0.24-0.79-0.42c-0.26-0.17-0.49-0.4-0.69-0.67
		c-0.21-0.27-0.37-0.59-0.5-0.96c-0.13-0.37-0.19-0.8-0.19-1.29V14.35H101.98z"/>
	<path class="st1" d="M122.76,5.55h11.27l6.99,21.64c0.09,0.29,0.19,0.62,0.3,1c0.11,0.38,0.23,0.78,0.35,1.21
		c0.12,0.43,0.23,0.88,0.36,1.33c0.12,0.45,0.23,0.9,0.34,1.33s0.2,0.84,0.28,1.23c0.08,0.39,0.15,0.73,0.2,1.02h0.21
		c0.09-0.45,0.21-1,0.35-1.64c0.14-0.64,0.3-1.3,0.46-1.98c0.17-0.67,0.33-1.33,0.5-1.95c0.17-0.62,0.31-1.14,0.44-1.56l6.78-21.64
		h11.04v33.21c0,0.67-0.05,1.24-0.15,1.69c-0.1,0.45-0.3,0.86-0.6,1.24c-0.31,0.38-0.69,0.67-1.15,0.89
		c-0.46,0.22-1.02,0.32-1.67,0.32c-0.65,0-1.2-0.11-1.67-0.32s-0.85-0.51-1.15-0.89c-0.3-0.37-0.51-0.78-0.61-1.24
		c-0.1-0.46-0.15-1.02-0.15-1.69V28.27c0-0.72,0.01-1.48,0.02-2.29s0.03-1.64,0.05-2.49c0.02-0.85,0.04-1.71,0.07-2.58
		c0.03-0.87,0.06-1.73,0.1-2.58c0.04-0.85,0.07-1.67,0.11-2.48c0.04-0.8,0.07-1.57,0.11-2.29h-0.36l-8.92,28.8h-7.93l-9.42-28.8
		h-0.35c0.04,0.6,0.07,1.29,0.11,2.05c0.04,0.76,0.07,1.57,0.11,2.42c0.04,0.85,0.07,1.73,0.11,2.63c0.04,0.9,0.07,1.8,0.09,2.69
		s0.05,1.75,0.06,2.58c0.01,0.84,0.02,1.61,0.02,2.33v10.82c0,0.62-0.05,1.15-0.14,1.58s-0.28,0.82-0.57,1.16
		c-0.29,0.34-0.65,0.61-1.08,0.82s-0.95,0.3-1.55,0.3c-0.6,0-1.12-0.1-1.55-0.3c-0.43-0.2-0.79-0.47-1.08-0.82
		c-0.29-0.34-0.48-0.73-0.57-1.16s-0.13-0.96-0.13-1.58V5.55z"/>
	<path class="st1" d="M173.25,2.47c0.55,0,1.07,0.09,1.57,0.27c0.5,0.18,0.92,0.44,1.29,0.77c0.36,0.33,0.65,0.73,0.87,1.19
		c0.22,0.46,0.32,0.98,0.32,1.55c0,0.57-0.11,1.08-0.32,1.54c-0.22,0.46-0.51,0.85-0.87,1.17c-0.36,0.32-0.79,0.57-1.29,0.75
		c-0.49,0.18-1.02,0.26-1.57,0.26c-0.56,0-1.08-0.09-1.57-0.26c-0.49-0.18-0.92-0.42-1.28-0.75c-0.36-0.32-0.65-0.71-0.87-1.17
		c-0.22-0.46-0.32-0.97-0.32-1.54c0-0.57,0.11-1.08,0.32-1.55c0.22-0.46,0.51-0.86,0.87-1.19c0.36-0.33,0.79-0.59,1.28-0.77
		C172.17,2.56,172.69,2.47,173.25,2.47z M176.87,14.35v24.99c0,0.5-0.07,0.93-0.2,1.29c-0.13,0.37-0.3,0.69-0.51,0.96
		c-0.21,0.27-0.44,0.49-0.7,0.67c-0.26,0.18-0.53,0.32-0.8,0.42c-0.27,0.1-0.53,0.17-0.78,0.22c-0.25,0.04-0.46,0.06-0.64,0.06
		c-0.19,0-0.41-0.02-0.66-0.06c-0.25-0.04-0.51-0.11-0.78-0.22s-0.53-0.24-0.79-0.42c-0.26-0.17-0.49-0.4-0.7-0.67
		c-0.21-0.27-0.37-0.59-0.5-0.96c-0.13-0.37-0.19-0.8-0.19-1.29V14.35H176.87z"/>
	<path class="st1" d="M205.15,5.55v33.09c0,0.68-0.07,1.26-0.22,1.74s-0.38,0.9-0.68,1.28c-0.31,0.38-0.7,0.68-1.17,0.9
		c-0.47,0.22-1.03,0.34-1.68,0.34c-0.65,0-1.21-0.11-1.68-0.34s-0.86-0.53-1.17-0.9c-0.31-0.38-0.53-0.8-0.68-1.28
		s-0.22-1.06-0.22-1.74V5.55H205.15z M227.12,5.55l-13.93,17.49l11.23,13.87c0.26,0.31,0.48,0.68,0.65,1.09
		c0.18,0.41,0.26,0.8,0.26,1.18c0,0.56-0.1,1.06-0.3,1.52c-0.2,0.45-0.47,0.84-0.82,1.17c-0.35,0.33-0.76,0.58-1.23,0.76
		c-0.48,0.18-0.99,0.27-1.54,0.27c-0.24,0-0.5-0.03-0.78-0.09c-0.28-0.06-0.55-0.14-0.82-0.26s-0.51-0.25-0.75-0.4
		s-0.42-0.34-0.57-0.55l-11.66-15.76c-0.14-0.19-0.27-0.39-0.37-0.61c-0.1-0.22-0.19-0.44-0.26-0.66c-0.07-0.22-0.12-0.44-0.16-0.65
		c-0.04-0.21-0.05-0.4-0.05-0.56c0-0.41,0.06-0.81,0.17-1.2s0.32-0.79,0.61-1.17l11.6-15.44H227.12z"/>
	<path class="st1" d="M233.49,14.35l4.59,13.33c0.4,1.14,0.75,2.3,1.06,3.48c0.31,1.18,0.62,2.34,0.94,3.48h0.17l1.88-6.96
		c0.32-1.2,0.61-2.24,0.86-3.13c0.25-0.89,0.47-1.69,0.68-2.4s0.39-1.35,0.56-1.94c0.17-0.59,0.33-1.18,0.51-1.77
		c0.17-0.59,0.34-1.21,0.52-1.86c0.17-0.65,0.37-1.4,0.59-2.23h7.75l-9.71,28.93c-0.61,1.81-1.38,3.4-2.3,4.79
		c-0.92,1.38-1.94,2.55-3.05,3.48c-1.11,0.94-2.28,1.64-3.5,2.12s-2.43,0.72-3.63,0.72c-0.48,0-0.92-0.06-1.34-0.19
		s-0.77-0.31-1.08-0.56c-0.31-0.25-0.55-0.56-0.72-0.93c-0.18-0.37-0.26-0.81-0.26-1.32c0-0.41,0.06-0.76,0.18-1.08
		c0.12-0.31,0.29-0.59,0.5-0.83c0.21-0.24,0.46-0.45,0.75-0.62c0.29-0.18,0.6-0.33,0.94-0.47c0.71-0.28,1.42-0.62,2.12-1.03
		c0.7-0.4,1.33-0.87,1.88-1.4c0.55-0.53,1-1.11,1.34-1.75c0.34-0.64,0.51-1.34,0.51-2.09c0-0.22-0.03-0.48-0.09-0.78
		c-0.06-0.29-0.14-0.59-0.24-0.9c-0.09-0.31-0.2-0.6-0.3-0.88c-0.11-0.28-0.2-0.53-0.28-0.74l-9.93-24.5H233.49z"/>
	<path class="st1" d="M269.25,13.64c1.28,0,2.51,0.14,3.69,0.41c1.18,0.27,2.29,0.69,3.33,1.23c1.03,0.55,1.97,1.23,2.82,2.06
		c0.84,0.82,1.57,1.78,2.18,2.87c0.61,1.09,1.08,2.31,1.41,3.68c0.33,1.36,0.5,2.86,0.5,4.49c0,1.62-0.17,3.11-0.5,4.47
		s-0.8,2.58-1.41,3.67s-1.33,2.05-2.18,2.87c-0.85,0.83-1.79,1.52-2.82,2.06c-1.04,0.55-2.14,0.96-3.33,1.24
		c-1.18,0.28-2.41,0.42-3.69,0.42c-1.28,0-2.51-0.14-3.7-0.42c-1.19-0.28-2.3-0.69-3.33-1.24c-1.04-0.55-1.98-1.24-2.83-2.06
		c-0.85-0.83-1.59-1.79-2.19-2.87c-0.61-1.09-1.08-2.31-1.42-3.67c-0.34-1.36-0.51-2.85-0.51-4.47c0-1.63,0.17-3.12,0.51-4.49
		c0.34-1.36,0.81-2.59,1.42-3.68c0.61-1.09,1.34-2.04,2.19-2.87s1.8-1.51,2.83-2.06c1.03-0.55,2.15-0.96,3.33-1.23
		S267.97,13.64,269.25,13.64z M269.25,19.26c-0.92,0-1.77,0.17-2.57,0.52c-0.8,0.35-1.49,0.89-2.07,1.63
		c-0.58,0.74-1.05,1.68-1.38,2.82s-0.51,2.51-0.51,4.1c0,1.58,0.17,2.94,0.51,4.08c0.34,1.14,0.8,2.08,1.38,2.82
		s1.28,1.29,2.07,1.64c0.8,0.35,1.65,0.53,2.57,0.53c0.93,0,1.79-0.18,2.6-0.53c0.8-0.35,1.5-0.9,2.09-1.64s1.05-1.68,1.39-2.82
		c0.34-1.14,0.51-2.5,0.51-4.08c0-1.59-0.17-2.96-0.51-4.1c-0.34-1.14-0.8-2.08-1.39-2.82c-0.59-0.74-1.29-1.28-2.09-1.63
		C271.04,19.43,270.17,19.26,269.25,19.26z"/>
</g>
</svg>
