<?xml version="1.0" encoding="utf-8"?>
<!-- Generator: Adobe Illustrator 26.0.1, SVG Export Plug-In . SVG Version: 6.00 Build 0)  -->
<svg version="1.1" id="Layer_1" xmlns="http://www.w3.org/2000/svg" xmlns:xlink="http://www.w3.org/1999/xlink" x="0px" y="0px"
	 viewBox="0 0 283.5 56.7" style="enable-background:new 0 0 283.5 56.7;" xml:space="preserve">
<style type="text/css">
	.st0{fill:#231F20;}
	.st1{fill:#6D6E71;}
</style>
<path class="st0" d="M21.6,10.7c0.3-0.4,0.6-0.7,1-0.9s0.7-0.3,1.2-0.3c0.7,0,1.3,0.2,1.8,0.7c0.5,0.5,0.7,1.3,0.7,2.5v4.2
	c0,1.2-0.2,2-0.7,2.5c-0.5,0.5-1,0.8-1.8,0.8c-0.7,0-1.2-0.2-1.6-0.6c-0.4-0.4-0.7-1.1-0.9-2.1c-0.1-0.7-0.3-1.2-0.7-1.6
	c-0.7-0.7-1.6-1.3-2.7-1.7c-1.2-0.4-2.4-0.6-3.5-0.6c-1.5,0-2.8,0.3-4,1C9,15.2,7.9,16.2,7,17.7c-0.9,1.4-1.4,3.1-1.4,5.1V26
	c0,2.4,0.9,4.3,2.6,5.9c1.7,1.6,4.1,2.4,7.2,2.4c1.8,0,3.4-0.2,4.6-0.7c0.7-0.3,1.5-0.9,2.3-1.7c0.5-0.5,0.9-0.8,1.2-1
	c0.3-0.2,0.6-0.2,1-0.2c0.7,0,1.2,0.2,1.7,0.7c0.5,0.5,0.7,1.1,0.7,1.8s-0.3,1.4-1,2.2c-1,1.1-2.2,2-3.8,2.6
	c-2.1,0.9-4.3,1.3-6.8,1.3c-2.9,0-5.5-0.6-7.9-1.8c-1.9-1-3.5-2.5-4.8-4.5c-1.3-2.1-2-4.3-2-6.8v-3.3c0-2.6,0.6-4.9,1.8-7.2
	c1.2-2.2,2.8-3.9,4.9-5.1s4.3-1.8,6.7-1.8c1.4,0,2.8,0.2,4,0.5C19.3,9.5,20.5,10,21.6,10.7z"/>
<path class="st1" d="M36,8.4v12.4c1.3-1.4,2.5-2.4,3.7-2.9c1.2-0.6,2.5-0.9,3.9-0.9c1.6,0,2.9,0.3,4,0.8c1.1,0.6,2,1.4,2.7,2.5
	s1.1,2.3,1.1,3.6v12.5h2.3c0.5,0,0.8,0.1,1,0.3c0.2,0.2,0.3,0.4,0.3,0.7c0,0.3-0.1,0.5-0.3,0.7c-0.2,0.2-0.5,0.3-1,0.3h-6.5
	c-0.5,0-0.8-0.1-1.1-0.3c-0.2-0.2-0.3-0.4-0.3-0.7c0-0.3,0.1-0.5,0.3-0.7s0.6-0.3,1.1-0.3h2.3V24.1c0-1.5-0.5-2.7-1.6-3.6
	c-1-1-2.5-1.5-4.4-1.5c-1.5,0-2.7,0.4-3.8,1.1c-0.8,0.5-2,1.7-3.7,3.6v12.7h2.3c0.5,0,0.8,0.1,1,0.3c0.2,0.2,0.3,0.4,0.3,0.7
	c0,0.3-0.1,0.5-0.3,0.7c-0.2,0.2-0.6,0.3-1,0.3h-6.6c-0.5,0-0.8-0.1-1-0.3c-0.2-0.2-0.3-0.4-0.3-0.7c0-0.3,0.1-0.5,0.3-0.7
	c0.2-0.2,0.6-0.3,1-0.3H34v-26h-2.7c-0.5,0-0.8-0.1-1-0.3s-0.3-0.4-0.3-0.7c0-0.3,0.1-0.5,0.3-0.7c0.2-0.2,0.6-0.3,1-0.3H36z"/>
<path class="st1" d="M79.6,28.1c0,3.1-1.1,5.7-3.3,7.9c-2.2,2.2-4.8,3.3-7.9,3.3c-3.1,0-5.8-1.1-8-3.3c-2.2-2.2-3.3-4.8-3.3-7.8
	c0-3.1,1.1-5.7,3.3-7.9c2.2-2.2,4.8-3.3,8-3.3c3.1,0,5.7,1.1,7.9,3.3C78.5,22.4,79.6,25,79.6,28.1z M77.6,28.1
	c0-2.5-0.9-4.7-2.7-6.4c-1.8-1.8-4-2.7-6.5-2.7c-2.6,0-4.7,0.9-6.5,2.7c-1.8,1.8-2.7,3.9-2.7,6.4c0,2.5,0.9,4.6,2.7,6.4
	c1.8,1.8,4,2.7,6.5,2.7c2.6,0,4.7-0.9,6.5-2.7C76.7,32.8,77.6,30.6,77.6,28.1z"/>
<path class="st1" d="M93.2,17.7v18.7h7.9c0.5,0,0.8,0.1,1.1,0.3c0.2,0.2,0.3,0.4,0.3,0.7c0,0.3-0.1,0.5-0.3,0.7
	c-0.2,0.2-0.6,0.3-1.1,0.3H83.3c-0.5,0-0.8-0.1-1-0.3C82.1,38,82,37.7,82,37.5c0-0.3,0.1-0.5,0.3-0.7s0.6-0.3,1-0.3h7.9V19.7h-5.9
	c-0.5,0-0.8-0.1-1-0.3C84.1,19.3,84,19,84,18.7c0-0.3,0.1-0.6,0.3-0.7c0.2-0.2,0.6-0.3,1.1-0.3H93.2z M92.2,7.4v5.2h-2V7.4H92.2z"/>
<path class="st0" d="M126.7,18.9v14.6h1.8c1.2,0,2,0.2,2.5,0.7c0.5,0.5,0.8,1.1,0.8,1.8c0,0.7-0.3,1.3-0.8,1.8
	c-0.5,0.5-1.3,0.7-2.5,0.7H122c-1.2,0-2-0.2-2.5-0.7c-0.5-0.5-0.8-1.1-0.8-1.8c0-0.7,0.2-1.3,0.7-1.8c0.5-0.5,1.3-0.7,2.3-0.7V14.3
	c-0.9-0.1-1.5-0.3-2-0.8c-0.4-0.4-0.7-1-0.7-1.7c0-0.7,0.3-1.3,0.8-1.8c0.5-0.5,1.3-0.7,2.5-0.7l5.4,0l6.7,14.8l6.6-14.8l5.4,0
	c1.2,0,2,0.2,2.5,0.7c0.5,0.4,0.8,1,0.8,1.8c0,0.7-0.2,1.2-0.7,1.7s-1.1,0.7-1.9,0.8v19.2c1,0,1.8,0.2,2.3,0.7
	c0.5,0.5,0.7,1.1,0.7,1.8s-0.3,1.3-0.8,1.8c-0.5,0.5-1.3,0.7-2.5,0.7h-6.5c-1.2,0-2-0.2-2.5-0.7c-0.5-0.5-0.8-1.1-0.8-1.8
	c0-0.7,0.3-1.3,0.8-1.8c0.5-0.5,1.3-0.7,2.5-0.7h1.8V18.9l-5.6,12.7h-4.3L126.7,18.9z"/>
<path class="st1" d="M164.9,17.7v18.7h7.9c0.5,0,0.8,0.1,1.1,0.3c0.2,0.2,0.3,0.4,0.3,0.7c0,0.3-0.1,0.5-0.3,0.7
	c-0.2,0.2-0.6,0.3-1.1,0.3H155c-0.5,0-0.8-0.1-1-0.3c-0.2-0.2-0.3-0.4-0.3-0.7c0-0.3,0.1-0.5,0.3-0.7c0.2-0.2,0.6-0.3,1-0.3h7.9
	V19.7H157c-0.5,0-0.8-0.1-1-0.3c-0.2-0.2-0.3-0.4-0.3-0.7c0-0.3,0.1-0.6,0.3-0.7c0.2-0.2,0.6-0.3,1.1-0.3H164.9z M163.8,7.4v5.2h-2
	V7.4H163.8z"/>
<path class="st0" d="M202.9,28.1v5.4h1.8c1.2,0,2,0.2,2.5,0.7s0.8,1.1,0.8,1.8c0,0.7-0.3,1.3-0.8,1.8c-0.5,0.5-1.3,0.7-2.5,0.7h-7.5
	c-1.2,0-2-0.2-2.5-0.7c-0.5-0.5-0.8-1.1-0.8-1.8c0-0.7,0.3-1.3,0.8-1.8c0.5-0.5,1.3-0.7,2.5-0.7h0.8V14.3h-0.8c-1.2,0-2-0.2-2.5-0.7
	c-0.5-0.5-0.8-1.1-0.8-1.8s0.3-1.3,0.8-1.8c0.5-0.5,1.3-0.7,2.5-0.7l7.5,0c1.2,0,2,0.2,2.5,0.7s0.8,1,0.8,1.8s-0.3,1.3-0.8,1.8
	c-0.5,0.5-1.3,0.7-2.5,0.7h-1.8v7.3l8.7-7.5c-0.5-0.4-0.9-0.7-1.1-1c-0.2-0.3-0.3-0.7-0.3-1.2c0-0.8,0.3-1.4,0.8-1.8
	s1.3-0.7,2.5-0.7l5,0c1.2,0,2,0.2,2.5,0.7s0.8,1,0.8,1.8c0,0.7-0.3,1.3-0.8,1.8c-0.5,0.5-1.3,0.7-2.4,0.7l-8.8,7.7
	c1.6,0.9,3.2,2.4,4.6,4.3c1.4,1.9,2.7,4.3,3.8,7.2h1.3c1.2,0,2,0.2,2.5,0.7s0.8,1.1,0.8,1.8c0,0.7-0.2,1.3-0.7,1.8
	c-0.5,0.5-1.3,0.7-2.5,0.7h-4.5c-1-2.4-2.1-4.8-3.4-7c-1-1.8-1.9-3.1-2.8-3.9c-0.9-0.8-1.9-1.5-3.2-2L202.9,28.1z"/>
<path class="st1" d="M233.9,38.5l-9.3-18.7h-0.6c-0.5,0-0.8-0.1-1-0.3c-0.2-0.2-0.3-0.4-0.3-0.7c0-0.2,0.1-0.4,0.2-0.6
	c0.1-0.2,0.2-0.3,0.4-0.4c0.2-0.1,0.4-0.1,0.8-0.1h5.5c0.5,0,0.8,0.1,1,0.3c0.2,0.2,0.3,0.4,0.3,0.7c0,0.3-0.1,0.5-0.3,0.7
	c-0.2,0.2-0.6,0.3-1,0.3h-2.7l8.2,16.5l8.1-16.5h-2.7c-0.5,0-0.8-0.1-1-0.3c-0.2-0.2-0.3-0.4-0.3-0.7c0-0.3,0.1-0.5,0.3-0.7
	c0.2-0.2,0.6-0.3,1-0.3h5.5c0.5,0,0.8,0.1,1.1,0.3c0.2,0.2,0.3,0.4,0.3,0.7c0,0.2-0.1,0.4-0.2,0.6s-0.3,0.3-0.4,0.3
	c-0.2,0.1-0.6,0.1-1.3,0.1l-12.7,26h3.1c0.5,0,0.8,0.1,1,0.3c0.2,0.2,0.3,0.4,0.3,0.7c0,0.3-0.1,0.5-0.3,0.7c-0.2,0.2-0.6,0.3-1,0.3
	H224c-0.5,0-0.8-0.1-1-0.3s-0.3-0.4-0.3-0.7c0-0.3,0.1-0.5,0.3-0.7c0.2-0.2,0.6-0.3,1-0.3h6.3L233.9,38.5z"/>
<path class="st1" d="M270.8,28.1c0,3.1-1.1,5.7-3.3,7.9c-2.2,2.2-4.8,3.3-7.9,3.3c-3.1,0-5.8-1.1-8-3.3c-2.2-2.2-3.3-4.8-3.3-7.8
	c0-3.1,1.1-5.7,3.3-7.9c2.2-2.2,4.8-3.3,8-3.3c3.1,0,5.7,1.1,7.9,3.3C269.7,22.4,270.8,25,270.8,28.1z M268.7,28.1
	c0-2.5-0.9-4.7-2.7-6.4c-1.8-1.8-4-2.7-6.5-2.7s-4.7,0.9-6.5,2.7c-1.8,1.8-2.7,3.9-2.7,6.4c0,2.5,0.9,4.6,2.7,6.4
	c1.8,1.8,4,2.7,6.5,2.7s4.7-0.9,6.5-2.7C267.8,32.8,268.7,30.6,268.7,28.1z"/>
</svg>
